# xmcd
#
# Track frame offsets:
#	150
#	13387
#	25685
#	36455
#	49960
#	64630
#	76010
#	85810
#	98557
#	109012
#	121895
#	134315
#	145507
#	154215
#	166197
#	178005
#	189227
#	201715
#	211822
#	223767
#	236755
#	250240
#
# Disc length: 3486 seconds
#
# Revision: 2
# Processed by: cddbd v1.5.2PL0 Copyright (c) Steve Scherf et al.
# Submitted via: audiograbber 1.83.01
#
DISCID=300d9c16
DTITLE=Various Artist - Juke Box R&B
DYEAR=1900
DGENRE=Oldies
TTITLE0=Cadets - I Got Loaded
TTITLE1=Floyd Dixon Orchestra - Dance The Thing
TTITLE2=Etta James - Baby Baby Every Night
TTITLE3=Earl Curry - One Whole Year Baby
TTITLE4=Flairs - This Is The Night For Love
TTITLE5=Young Jessie - Hit, Git And Split
TTITLE6=Flairs - She Wants To Rock
TTITLE7=B. B. King - Everyday I Have The Blues
TTITLE8=Cadets - Wiggie Waggie Woo
TTITLE9=Johnny 'Guitar' Watson - She Moves Me
TTITLE10=Elmore James - Standing at the Crossroads
TTITLE11=Jimmy Beasley - Rhumba Rock
TTITLE12=Ike and Tina Turner - Chicken Shack
TTITLE13=B. B. King - Don't You Want A Man Like Me
TTITLE14=Lowell Fulsom - Shattered Dreams
TTITLE15=Cadets - Sixty Minute Man
TTITLE16=Etta James - How Big A Fool
TTITLE17=Jimmy Beasley - I'm So Blue
TTITLE18=Richard Berry and The Flairs - Let's Make With Some Love
TTITLE19=Robins - Double Crossin' Baby
TTITLE20=Jacks - My Darling
TTITLE21=Teen Queens - Rock Everybody
EXTD=
EXTT0=
EXTT1=
EXTT2=
EXTT3=
EXTT4=
EXTT5=
EXTT6=
EXTT7=
EXTT8=
EXTT9=
EXTT10=
EXTT11=
EXTT12=
EXTT13=
EXTT14=
EXTT15=
EXTT16=
EXTT17=
EXTT18=
EXTT19=
EXTT20=
EXTT21=
PLAYORDER=
